<?xml version="1.0" standalone="no"?>
<!DOCTYPE svg PUBLIC "-//W3C//DTD SVG 20010904//EN"
 "http://www.w3.org/TR/2001/REC-SVG-20010904/DTD/svg10.dtd">
<svg version="1.0" xmlns="http://www.w3.org/2000/svg"
 width="233.000000pt" height="212.000000pt" viewBox="0 0 233.000000 212.000000"
 preserveAspectRatio="xMidYMid meet">

<g transform="translate(0.000000,212.000000) scale(0.100000,-0.100000)"
fill="#000000" stroke="none">
<path d="M1042 1918 c-98 -139 -109 -160 -87 -154 75 19 177 37 182 33 11 -12
-9 -26 -47 -32 -22 -4 -50 -15 -63 -25 -13 -11 -104 -44 -203 -75 -304 -96
-322 -103 -289 -104 17 0 138 24 269 54 132 30 241 54 242 52 2 -2 -8 -20 -22
-41 -23 -33 -24 -37 -8 -33 11 3 57 14 104 23 60 12 90 23 102 38 10 12 42 27
80 37 54 13 63 18 60 36 -2 13 3 23 12 25 26 5 -20 68 -49 68 -13 0 -27 5 -30
10 -3 6 1 10 9 10 9 0 16 4 16 9 0 13 -150 231 -158 230 -4 0 -58 -72 -120
-161z"/>
<path d="M1810 1733 c-14 -2 -63 -12 -110 -23 -47 -10 -128 -29 -180 -40 -52
-12 -122 -28 -155 -35 -33 -8 -76 -16 -95 -19 -19 -2 -42 -7 -50 -10 -8 -3
-44 -13 -80 -20 -196 -44 -408 -110 -416 -131 -3 -7 -38 -24 -77 -36 -164 -52
-4 -25 391 66 227 52 415 95 417 95 1 0 2 7 1 17 -1 12 21 21 104 41 58 13
175 42 260 62 l155 38 -70 0 c-38 -1 -81 -2 -95 -5z"/>
<path d="M2130 1721 c-49 -15 -56 -19 -48 -26 5 -5 128 34 128 40 0 7 -34 1
-80 -14z"/>
<path d="M433 1686 c-100 -12 -184 -24 -187 -27 -3 -3 16 -11 43 -18 46 -11
62 -10 218 24 92 21 170 39 172 41 8 7 -62 2 -246 -20z"/>
<path d="M2010 1679 c-19 -11 -41 -19 -48 -19 -7 0 -27 -7 -45 -17 -18 -9 -41
-18 -52 -20 -28 -4 -179 -56 -185 -63 -3 -3 -25 -12 -50 -20 -25 -7 -50 -18
-57 -23 -7 -5 -17 -6 -23 -2 -5 3 -10 2 -10 -2 0 -5 -8 -9 -17 -10 -10 -1 -52
-15 -95 -32 -42 -17 -83 -31 -90 -31 -8 0 -18 -4 -24 -8 -5 -5 -40 -19 -79
-32 -65 -21 -103 -40 -80 -40 13 1 290 64 618 142 l268 63 -118 3 c-65 1 -121
6 -126 11 -4 4 26 18 68 31 41 13 75 27 75 32 0 4 3 7 8 6 8 -3 122 32 122 37
0 12 -31 9 -60 -6z"/>
<path d="M2187 1564 c-3 -3 -146 -41 -317 -84 -171 -43 -314 -80 -316 -83 -3
-3 -1 -14 5 -25 14 -26 14 -55 1 -47 -5 3 -42 -8 -82 -26 -40 -17 -111 -44
-158 -61 -47 -16 -98 -36 -115 -43 -16 -7 -39 -16 -49 -19 -10 -4 -17 -8 -14
-11 2 -2 109 19 236 47 195 43 232 54 227 67 -4 9 -7 20 -8 25 -1 5 144 63
323 128 179 65 336 122 350 127 21 8 17 10 -26 10 -28 1 -53 -2 -57 -5z"/>
<path d="M533 1521 c-123 -14 -223 -28 -223 -32 0 -4 22 -12 48 -18 43 -11 65
-8 232 29 267 59 267 59 -57 21z"/>
<path d="M1435 1187 c-88 -22 -154 -42 -148 -44 12 -4 323 73 332 82 9 10 -28
2 -184 -38z"/>
<path d="M1579 1119 c-30 -9 -133 -38 -229 -64 -96 -25 -185 -51 -196 -57 -24
-11 -97 9 -88 24 8 12 6 12 -143 -41 -114 -40 -231 -97 -220 -107 1 -1 100 20
221 48 l218 50 48 -22 c35 -16 59 -21 84 -17 66 11 28 -21 -60 -50 -46 -15
-84 -30 -84 -33 0 -3 40 -25 88 -50 l87 -46 68 15 c37 9 67 18 67 22 0 4 -29
24 -65 45 -35 22 -65 41 -65 44 0 6 388 110 408 110 18 0 9 58 -17 108 -24 47
-34 49 -122 21z"/>
<path d="M1152 1063 c-40 -14 -71 -27 -69 -29 5 -5 129 36 142 47 12 12 12 12
-73 -18z"/>
<path d="M1740 911 c0 -5 -30 -25 -67 -46 -132 -72 -168 -95 -166 -105 2 -8
-37 -22 -122 -44 -5 -1 40 -35 100 -75 104 -68 112 -71 152 -65 24 3 45 10 48
14 3 5 -16 27 -42 49 -25 23 -44 44 -41 47 3 3 59 20 124 38 137 38 135 36 87
139 -21 45 -31 57 -50 57 -13 0 -23 -4 -23 -9z"/>
<path d="M289 754 c-32 -10 -49 -21 -58 -40 -6 -15 -10 -28 -8 -31 5 -4 188
40 228 56 l24 9 -25 6 c-53 13 -117 13 -161 0z"/>
<path d="M555 656 c-221 -76 -241 -86 -258 -115 -11 -17 -15 -31 -10 -31 5 0
70 15 144 33 132 33 138 35 257 115 68 45 119 82 115 81 -4 0 -116 -37 -248
-83z"/>
<path d="M1880 591 c-81 -40 -109 -59 -102 -67 4 -4 -1 -2 -11 5 -14 11 -25
12 -58 2 -22 -7 -39 -16 -37 -20 8 -20 501 -473 496 -456 -24 81 -228 543
-242 548 -7 3 -27 -3 -46 -12z"/>
<path d="M121 446 c-27 -10 -39 -23 -58 -67 l-24 -54 41 40 c36 35 87 96 78
94 -2 0 -18 -6 -37 -13z"/>
<path d="M184 278 c-26 -8 -37 -22 -58 -70 -16 -39 -20 -56 -10 -48 26 22 116
130 107 129 -4 -1 -22 -6 -39 -11z"/>
</g>
</svg>
